<svg id="Outline" height="50px" width="50px" viewBox="0 0 512 512" xmlns="http://www.w3.org/2000/svg"><path d="m488 111.687h-56v-24a8 8 0 0 0 -8-8h-187.056l-13.789-27.575a8 8 0 0 0 -7.155-4.422h-112a8 8 0 0 0 -7.155 4.421l-13.789 27.573h-59.056a8 8 0 0 0 -8 8v336a40.046 40.046 0 0 0 40 40h400a40.046 40.046 0 0 0 40-40v-304a8 8 0 0 0 -8-7.997zm-456 312v-328h56a8 8 0 0 0 7.155-4.422l13.789-27.575h102.112l13.789 27.575a8 8 0 0 0 7.155 4.422h184v16h-192a8 8 0 0 0 -7.589 5.47l-3.51 10.53h-156.901a8 8 0 0 0 -8 8v310.623a24.038 24.038 0 0 1 -16-22.623zm48-256v256a24.038 24.038 0 0 1 -16 22.623v-302.623h143.568l-5.334 16h-114.234a8 8 0 0 0 -8 8.002zm400 256a24.027 24.027 0 0 1 -24 24h-368.019a39.794 39.794 0 0 0 8.019-24v-248h112a8 8 0 0 0 7.589-5.47l14.177-42.532h250.234z"/></svg>